<svg xmlns="http://www.w3.org/2000/svg" xmlns:xlink="http://www.w3.org/1999/xlink" viewBox="0 0 750 500" xmlns:v="https://vecta.io/nano"><style><![CDATA[.B{stroke:#263238}.C{fill:#263238}.D{stroke-miterlimit:10}.E{fill:none}.F{fill:#fff}.G{stroke-linejoin:round}.H{fill:#92e3a9}.I{fill:#bababa}]]></style><use xlink:href="#B" class="H"/><g class="F"><use xlink:href="#B" opacity=".7"/><path d="M587.84 336.14s-18.52 11.68-31.05 18.86-29.35 9.4-29.63 11.68S508.07 425 508.07 425h181.77s-13.67-28.5-16.81-39-3.13-16.52-5.7-17.66-36.47-18.24-52.42-28.21z" class="B D"/></g><path d="M534 363.62L551.26 425H642l27-54.62a3.53 3.53 0 0 0-1.67-2.08c-2.56-1.14-36.47-18.24-52.42-28.21l-27.07-4s-18.52 11.73-31.05 18.91c-7.57 4.25-16.69 6.78-22.79 8.62z" class="B G H"/><path d="M587.84 336.14l-14.75 9.14a59.84 59.84 0 0 0-1 6c-2.58 21.58 7.12 40.48 21.66 42.22s28.42-14.34 31-35.92a57.25 57.25 0 0 0 .22-11.52c-3.72-2.12-7.16-4.13-10-5.92z" class="B D F"/><path d="M587,311.64l-6.84,34.47s3.13,38.18,14.82,38.47S619.75,347,619.75,347l.57-30.2Z" class="B G I"/><path d="M620.31 317.23l-7.43 2.62-15.93 7.24 22.89 15.5.47-25.36zm60.42-73.12a24.5 24.5 0 0 0-12.92-21.59 24.33 24.33 0 0 0-26.76-14.79 22.65 22.65 0 0 0-40.75-.85 23.8 23.8 0 0 0-33 31.05 16.52 16.52 0 0 0-12.29 30.48 15.65 15.65 0 0 0 9.17 21.95 13.82 13.82 0 1 0 27.33 2.9 13.75 13.75 0 0 0-3.77-9.46l3.2-27.72 34.76 2.85-4.08 37.78a15.39 15.39 0 1 0 29.88.33 20.62 20.62 0 0 0 16.2-31.3 24.51 24.51 0 0 0 13.03-21.63z" class="C D B"/><g class="G I B"><path d="M579 281.44s-5.41-12-9.4-2.28 3.4 16.84 8.56 19.66.84-17.38.84-17.38zm58 5.8s6.73-11.27 9.6-1.2-5.31 16.32-10.73 18.56 1.13-17.36 1.13-17.36z"/><path d="M577.87 274.32s-.28 25.64 3.42 32.76 16.81 25.92 25.07 25.07 20.23-13.39 23.37-18.23a48.63 48.63 0 0 0 3.7-6.27l6-26.78s-2.56-2-2.28-7.12a23.08 23.08 0 0 1 2.85-9.41 8.12 8.12 0 0 1-4.56-6 70.64 70.64 0 0 1-.57-8.26s-11.39-3.14-17.66-12c0 0-9.69 6.27-17.38 2.28 0 0-6.84 12-13.68 10.26-.02.05 3.4 21.13-8.28 23.7z"/></g><g class="D B"><path d="M591.83 266.34s10-6.27 14.82 2m11.39 3.98l11.4.86" class="E"/><path d="M598.67 279c0 2.12-.83 3.84-1.85 3.84S595 281.14 595 279s.82-3.85 1.85-3.85 1.82 1.74 1.82 3.85zm26.72 4.49c-.56 2.05-1.8 3.5-2.79 3.23s-1.34-2.14-.79-4.2 1.8-3.49 2.79-3.23 1.34 2.15.79 4.2z" class="C"/><path d="M602.94 291.13l-1.71 5.41 13.96 1.14-.56-3.99m-11.12 14.82l6.27.85" class="E"/></g><path d="M582.71 331.87L576.16 372 532 424.18h34.19l20.51-46.44s4.85-2.56 7.13-4.84 5.12-8 5.12-8-1.14 4.56 1.43 7.12 5.41 1.71 5.41.29-.57-6.27-.28-9.41 4-16.24 2-18.8-16.81-2-16.81-2l-.57-5.42s17.1-2 18.24-4.84 2-4.56-2.57-4.27-9.68-.57-15.38.85-6.57.88-7.71 3.45z" class="B G I"/><path d="M588.41 348.68S599 347 601.23 347s5.7 2.56 5.7 2.56m-18.23 7.38s10.25-3.7 13.39-4.27 4.27 4 4.27 4m-15.67-14.54l-3.99 1.42" class="D E B"/><g class="C G B"><path d="M686.39 135.93a22 22 0 0 0-20.79-22 22 22 0 0 0-28.23-26.09 22.05 22.05 0 0 0-41-5.76 22 22 0 0 0-40 8 22.07 22.07 0 0 0-13.81 25.18 22 22 0 0 0 22.92 37.37 22 22 0 0 0 28.06 19.6 22 22 0 0 0 40.83 6.7A22 22 0 0 0 665 158.62v-.66a22 22 0 0 0 21.39-22.03z"/><ellipse cx="580.19" cy="176.27" rx="11.03" ry="8.19"/><path d="M580.05 195.68c0 3.16-3.45 5.71-7.69 5.71s-7.69-2.55-7.69-5.71 3.44-5.71 7.69-5.71 7.69 2.56 7.69 5.71z"/></g><g class="D F B"><path d="M683.51 129.46a22 22 0 0 0-20.78-22 22 22 0 0 0-28.23-26.09 22.06 22.06 0 0 0-41-5.76 22 22 0 0 0-40 8 22 22 0 0 0-13.8 25.17 22 22 0 0 0 22.92 37.38 22 22 0 0 0 22 20.46 21.72 21.72 0 0 0 6.07-.87 22 22 0 0 0 40.83 6.71 22.08 22.08 0 0 0 30.62-20.33v-.66a22 22 0 0 0 21.37-22.01z"/><path d="M588.35 169.79c0 4.53-4.94 8.2-11 8.2s-11-3.67-11-8.2 4.94-8.19 11-8.19 11 3.67 11 8.19zm-11.18 19.42c0 3.15-3.44 5.71-7.69 5.71s-7.69-2.56-7.69-5.71 3.45-5.71 7.69-5.71 7.69 2.56 7.69 5.71z"/></g><g class="C"><use xlink:href="#C"/><use xlink:href="#D"/><use xlink:href="#C" x="36.57"/><path d="M417.63 241.84s-6-24.79-32.48-25.36S344.69 241 343 246.11s-35.62 19.66-32.2 35.9 17.38 5.41 18 12-12 21.93-4.56 35.32 14.82 21.94 33.05 13.4 26.22-18.24 32.2-13.11 9.4 12.82 31.06 6.55 13.67-23.65 11.68-34.76 17.09-19.66 11.11-36.47-18.88-26.52-25.71-23.1z" class="B D"/></g><path d="M370.05 330.44l3.7 14.25s-19.09 10.54-31.63 15.67a94.14 94.14 0 0 1-21.94 6.27l-14.24 58.12h167.24L448.4 367.2l-2.57-6.55s-26.21-6-33.9-10-9.12-6.26-9.12-6.26L402 310.5z" class="B G H"/><g class="D B"><path d="M413.36 351.35l-1.43-.68c-7.69-4-9.12-6.26-9.12-6.26L402 310.5l-31.91 19.94 3.7 14.25s-4.77 2.63-11.1 5.9l-6.28 34.56 46.16 2z" class="F"/><path d="M396.54 320.19l3.98-8.8-30.47 19.05 3.7 14.25 2.56 10.83 20.23-35.33z" class="C"/><path d="M325.03 424.75l7.98-39.32m92.88 39.61l9.69-45.88" class="E"/><path d="M367.43 264.3a56.93 56.93 0 0 1-8 7.74c-4.13 3.09-13.68 4.12-13.68 4.12s1.29 23 3.87 34.06 13.94 23.48 16.52 24.78 24.26-8.51 30.19-12.64 9.29-14.71 9.29-14.71a23 23 0 0 0 8.77-5.67c4.39-4.39 3.1-15.48 3.1-15.48s-5.94 6.19-8.77 6.7-6.46-7.74-6.46-7.74-11.61-.77-14.44-6.45 3.35-16-2.07-23-18.32 8.29-18.32 8.29z" class="F"/><path d="M358.4 283.91a45.58 45.58 0 0 1 1.55 8c.26 3.62-3.61 17.81-3.61 17.81h9.55m-5.16 6.69a17.63 17.63 0 0 0 11.86 0c6.2-2.32 11.1-12.9 11.1-12.9" class="E"/><path d="M365.91 317.48s1 9.25 6.17 6.42 5.92-11.61 5.92-11.61a17.24 17.24 0 0 1-12.09 5.19z" class="C"/></g><ellipse cx="374.63" cy="290.26" rx="1.85" ry="3.35" class="B C"/><g class="D B"><path d="M356,288c0,1.85-.75,3.35-1.67,3.35s-1.68-1.5-1.68-3.35.75-3.36,1.68-3.36S356,286.11,356,288Z" class="C"/><path d="M368.71 280.2s7.77-7.06 13.77 2.83m-24.88-2.65s-7.59-4.24-9.18 3" class="E"/></g><path d="M434.39 94.74h-108A11.24 11.24 0 0 0 315.17 106v64.35a11.24 11.24 0 0 0 11.24 11.24h56.36l14.16 27.28 2.57-27.28h34.89a11.24 11.24 0 0 0 11.24-11.24V106a11.24 11.24 0 0 0-11.24-11.26z" class="B C G"/><path d="M430.63 89.47h-108a11.24 11.24 0 0 0-11.24 11.24v64.35a11.24 11.24 0 0 0 11.24 11.24H379l14.17 27.28 2.57-27.28h34.89a11.24 11.24 0 0 0 11.24-11.24v-64.35a11.24 11.24 0 0 0-11.24-11.24z" class="B D F"/><g class="C"><use xlink:href="#E"/><use xlink:href="#E" x="18.29"/><use xlink:href="#E" x="36.57"/></g><g class="B"><path d="M140.43 347.12s-51.6 31.73-51.6 34.88-10.58 43-10.58 43h197.12s-23-52.12-27.35-55.48-56.51-28.89-60.89-30.7-46.7 8.3-46.7 8.3z" class="G H"/><g class="D"><path d="M102.76 424.78l-3.87-28.64m160.48 28.64l-12.38-44.38m-69.15-1.03s4.9 27.61 5.68 29.15S192 408 192 408l-2.58-17" class="E"/><g class="F"><path d="M140.69 330.35s-6.71 5.93-7.74 14.7 4.13 37.67 8.77 36.9 11.61-11.61 15.74-12.9 26.57-5.68 29.15-6.71 11.1 1.29 13.68 3.1 6.7 3.61 7.22.77-4.39-23-10.32-34.83-18.58-12.64-29.41-11.09-27.09 10.06-27.09 10.06z"/><path d="M132.69 313.32s13.93 39.73 19.61 45.15 19.09 22.19 25.54 20.9 10.06-26.06 9.55-35.61-7.23-42.57-7.23-42.57-1.8 5.94-14.7 12.39-32.77-.26-32.77-.26z"/></g><path d="M164.68 325.7a152.59 152.59 0 0 0 13.58-21.44c-1.92 2.33-5.66 5.74-12.8 9.32-12.9 6.45-32.77-.26-32.77-.26s5.35 15.26 10.77 28.16c5.37-2.18 14.63-6.94 21.22-15.78z" class="C"/><g class="F"><path d="M120.3 289.07s-6.7.51-5.41 6.7 9.28 13.42 11.86 13.68 2.58-1.81 2.58-1.81zm55.53-11.75s5.69-3.6 8.36 2.13.59 16.31-1.32 18.06-3.15.1-3.15.1z"/><path d="M116.43 256.56s-5.93 13.93-4.38 17.8 8.25 14.71 8.25 14.71 8 23.22 13.16 27.6 16 10.84 26.06 9.29 22.19-9.8 22.45-22.19-19.35-61.4-19.35-61.4a19.75 19.75 0 0 0-11.87-2.32c-7 .77-23.74-1-28.64 2.58s-6.19 8.25-5.68 13.93z"/></g><g class="C"><path d="M114.11 252.69s-7 10.83-6.19 16.25 12.38 20.13 12.38 20.13-5.67-13.68-4.12-18.84 4.12-7.48 3.61-12.12-2.58-4.65-1.55-7.23-1-5.93 8.26-3.61 18.83 4.39 26.57 1.55 17.8-11.1 16.77-19.87-9.29-7.48-14.19-4.13-3.87 8.52-8.25 4.91-4.13-10.84-11.87-8.26-24.26 11.87-21.42 31.22z"/><path d="M162.62 242.37s9 26.06 10.83 29.67a43.21 43.21 0 0 1 2.84 7.74s3.61-11.61 1.29-19.35-14.96-18.06-14.96-18.06z"/></g><path d="M150.94 258.21l-2.25 5.06 3.35 8.51m4.9 6.97s-3.61 5.16-8 6.45m-12.38 4.38s5.93 6.19 9.55 5.68 14.7-3.1 17-6.71 2.58-9 2.58-9" class="E"/><path d="M146.11,295.26s8,7.22,10.83,6.45,3.61-10.32,3.61-10.32Z" class="C"/><g class="E"><path d="M131.4 275.91s-.26-5.68 6.45-3.87m17.29-4.13s3.09-5.93 7.74-2.58"/><path d="M124.69 266.1s2.32-8.51 12.64-6.7m16-4.4s4.9-7.22 10.84.26" stroke-linecap="round" stroke-width="3"/></g><path d="M209.78 162.71a53.83 53.83 0 0 0-16.05 2.4l-12.51-14.24a48.18 48.18 0 0 0 12.44-32c0-28.85-26.6-52.25-59.41-52.25S74.83 90 74.83 118.88s26.6 52.26 59.42 52.26a64 64 0 0 0 40-13.65l11.59 10.82c-11.33 5.88-18.78 15.83-18.78 27.11 0 14.39 12.14 26.61 29 31l-6.8 19.4L206.42 228c1.11.06 2.22.11 3.36.11 23.56 0 42.67-14.65 42.67-32.71s-19.11-32.69-42.67-32.69z" class="C"/><path d="M205.43,159.09a53.76,53.76,0,0,0-16,2.4l-12.52-14.24a48.14,48.14,0,0,0,12.45-32c0-28.85-26.6-52.25-59.42-52.25s-59.41,23.4-59.41,52.25,26.6,52.26,59.41,52.26a63.94,63.94,0,0,0,40-13.65l11.6,10.82c-11.33,5.88-18.78,15.83-18.78,27.11,0,14.39,12.14,26.61,29,31l-6.81,19.4,17.14-17.78c1.1.06,2.22.11,3.35.11,23.57,0,42.67-14.65,42.67-32.71S229,159.09,205.43,159.09Z" class="F"/></g></g><g class="C"><circle cx="110.42" cy="116.46" r="3.81"/><circle cx="128.71" cy="116.46" r="3.81"/><use xlink:href="#D" x="-460.2" y="-7.62"/><use xlink:href="#D" x="-419.06" y="69.33"/><use xlink:href="#C" x="-382.46" y="69.33"/><use xlink:href="#D" x="-382.49" y="69.33"/></g><path d="M39.17 425.04h683.48" class="B D E"/><defs ><path id="B" d="M636.47,299.64s25.2-127.32-51.37-197.84C517.51,39.55,411.94,16.84,327.26,71c-30.17,19.3-65.92,38.93-101.37,50.83-39.75,13.35-83.76,16.62-119.86,71.28S91.48,336.07,141.68,372,282,406.5,360,402.32,598.5,456.9,636.47,299.64Z"/><path id="C" d="M592.69 124.08a3.81 3.81 0 1 0-3.81 3.81 3.82 3.82 0 0 0 3.81-3.81z"/><path id="D" d="M611 124.08a3.81 3.81 0 1 0-3.81 3.81 3.81 3.81 0 0 0 3.81-3.81z"/><path id="E" d="M361.84 134.75a3.81 3.81 0 1 0-3.81 3.8 3.81 3.81 0 0 0 3.81-3.8z"/></defs></svg>